<?xml version="1.0" standalone="no"?>
<!DOCTYPE svg PUBLIC "-//W3C//DTD SVG 20010904//EN"
 "http://www.w3.org/TR/2001/REC-SVG-20010904/DTD/svg10.dtd">
<svg version="1.0" xmlns="http://www.w3.org/2000/svg"
 width="512.000000pt" height="512.000000pt" viewBox="0 0 512.000000 512.000000"
 preserveAspectRatio="xMidYMid meet">
<metadata>
Created by potrace 1.14, written by Peter Selinger 2001-2017
</metadata>
<g transform="translate(0.000000,512.000000) scale(0.100000,-0.100000)"
fill="#000000" stroke="none">
<path d="M2370 5104 c-805 -72 -1490 -473 -1929 -1129 -221 -329 -353 -683
-413 -1100 -17 -118 -17 -512 0 -630 60 -417 192 -771 413 -1100 414 -619
1045 -1009 1804 -1117 117 -16 513 -16 630 0 759 108 1390 498 1804 1117 221
329 353 683 413 1100 17 118 17 512 0 630 -60 417 -192 771 -413 1100 -406
606 -1027 998 -1759 1110 -101 15 -455 27 -550 19z m-1880 -1398 c63 -24 133
-51 155 -61 474 -205 851 -312 1466 -415 68 -11 169 -29 224 -40 55 -11 190
-35 300 -55 482 -86 792 -178 1012 -301 162 -90 337 -249 450 -408 62 -87 151
-252 193 -358 12 -32 29 -58 36 -58 8 0 70 55 138 123 198 197 235 304 123
364 -25 14 -58 18 -157 18 -69 0 -140 -3 -158 -7 -19 -5 -31 -4 -27 1 10 17
118 34 205 33 134 -1 251 -47 285 -112 26 -49 19 -102 -24 -184 -74 -144 -188
-262 -389 -404 -275 -195 -523 -314 -853 -407 -178 -51 -379 -70 -516 -51 -62
9 -114 41 -127 79 -13 37 14 122 54 167 l31 35 -16 -33 c-20 -41 -22 -96 -5
-117 33 -40 71 -50 195 -49 147 0 385 43 385 69 0 24 -88 122 -152 170 -159
120 -255 149 -900 279 -292 59 -471 106 -603 158 -251 98 -439 231 -579 412
-96 123 -109 161 -43 122 297 -176 483 -233 1307 -396 314 -62 575 -122 673
-156 210 -73 343 -161 476 -314 36 -41 68 -76 73 -78 17 -8 6 29 -32 106 -88
175 -279 328 -500 400 -83 28 -371 91 -615 136 -580 107 -794 162 -1055 272
-262 110 -555 305 -675 450 -57 68 -88 114 -82 120 3 3 43 -17 89 -45 99 -59
280 -139 399 -175 118 -36 591 -145 1204 -278 898 -194 1301 -384 1521 -715
31 -46 59 -81 62 -79 9 10 -49 138 -96 211 -110 173 -308 325 -562 433 -220
94 -518 174 -1168 317 -256 56 -623 150 -772 197 -219 69 -499 203 -665 317
-135 92 -365 282 -387 319 -11 17 -18 32 -16 32 2 0 55 -20 118 -44z"/>
</g>
</svg>
